<svg xmlns="http://www.w3.org/2000/svg" xmlns:xlink="http://www.w3.org/1999/xlink" preserveAspectRatio="xMidYMid" width="16" height="13" viewBox="0 0 16 13">
  <defs>
    <style>
      .cls-1 {
        fill: #2c87ce;
        fill-rule: evenodd;
      }
    </style>
  </defs>
  <path d="M16.002,1.561 C15.732,1.710 14.924,2.007 14.170,2.081 C14.653,1.820 15.369,0.967 15.546,0.288 C15.081,0.585 14.013,1.017 13.486,1.017 C13.486,1.017 13.486,1.018 13.487,1.019 C12.886,0.391 12.040,-0.001 11.100,-0.001 C9.278,-0.001 7.800,1.477 7.800,3.300 C7.800,3.553 7.830,3.799 7.885,4.035 L7.884,4.035 C5.411,3.972 2.520,2.732 0.892,0.611 C-0.109,2.344 0.757,4.270 1.892,4.972 C1.505,5.002 0.788,4.928 0.451,4.599 C0.428,5.749 0.981,7.272 2.997,7.824 C2.608,8.034 1.923,7.975 1.623,7.929 C1.728,8.900 3.088,10.170 4.573,10.170 C4.044,10.781 2.237,11.894 0.002,11.539 C1.520,12.463 3.291,12.999 5.165,12.999 C10.490,12.999 14.626,8.684 14.403,3.359 C14.403,3.354 14.401,3.347 14.401,3.342 C14.401,3.327 14.403,3.312 14.403,3.300 C14.403,3.283 14.401,3.268 14.401,3.250 C14.886,2.920 15.536,2.334 16.002,1.561 Z" class="cls-1"/>
</svg>
