<svg xmlns="http://www.w3.org/2000/svg" xmlns:xlink="http://www.w3.org/1999/xlink" preserveAspectRatio="xMidYMid" width="16" height="21" viewBox="0 0 16 21">
  <defs>
    <style>
      .cls-1 {
        fill: #2c87ce;
        fill-rule: evenodd;
      }
    </style>
  </defs>
  <path d="M8.484,-0.001 C2.845,-0.001 0.001,4.108 0.001,7.534 C0.001,9.609 0.774,11.454 2.432,12.142 C2.704,12.255 2.947,12.146 3.026,11.840 C3.081,11.629 3.210,11.094 3.268,10.872 C3.348,10.570 3.317,10.464 3.098,10.200 C2.620,9.627 2.314,8.885 2.314,7.835 C2.314,4.786 4.559,2.057 8.158,2.057 C11.345,2.057 13.096,4.037 13.096,6.680 C13.096,10.158 11.582,13.093 9.333,13.093 C8.092,13.093 7.162,12.050 7.460,10.770 C7.817,9.242 8.508,7.592 8.508,6.489 C8.508,5.503 7.987,4.679 6.907,4.679 C5.638,4.679 4.618,6.013 4.618,7.801 C4.618,8.939 4.997,9.709 4.997,9.709 C4.997,9.709 3.698,15.303 3.470,16.282 C3.017,18.233 3.402,20.625 3.435,20.867 C3.454,21.010 3.635,21.044 3.717,20.935 C3.834,20.780 5.346,18.883 5.860,16.988 C6.005,16.451 6.694,13.672 6.694,13.672 C7.107,14.472 8.312,15.176 9.594,15.176 C13.409,15.176 15.998,11.641 15.998,6.909 C15.998,3.331 13.016,-0.001 8.484,-0.001 " class="cls-1"/>
</svg>
