<svg xmlns="http://www.w3.org/2000/svg" xmlns:xlink="http://www.w3.org/1999/xlink" preserveAspectRatio="xMidYMid" width="17.16" height="18.344" viewBox="0 0 17.16 18.344">
  <defs>
    <style>
      .cls-1 {
        fill: #2c87ce;
        fill-rule: evenodd;
      }
    </style>
  </defs>
  <path d="M14.381,18.343 L14.015,18.343 L3.129,18.343 L2.763,18.343 C1.234,18.343 -0.004,16.981 -0.004,15.301 L-0.004,15.052 L-0.004,12.407 L-0.004,11.306 C-0.004,9.626 1.234,8.264 2.763,8.264 L14.381,8.264 C15.910,8.264 17.149,9.626 17.149,11.306 L17.149,12.407 L17.149,15.052 L17.149,15.301 C17.149,16.981 15.910,18.343 14.381,18.343 ZM5.072,10.186 L1.701,10.186 L1.701,11.148 L2.838,11.148 L2.838,16.793 L3.935,16.793 L3.935,11.148 L5.072,11.148 L5.072,10.186 ZM8.282,11.918 L7.308,11.918 L7.308,15.622 C7.216,15.728 7.116,15.815 7.006,15.883 C6.896,15.952 6.804,15.986 6.734,15.986 C6.643,15.986 6.576,15.961 6.534,15.908 C6.494,15.857 6.474,15.773 6.474,15.658 L6.474,11.918 L5.499,11.918 L5.499,15.995 C5.499,16.286 5.557,16.502 5.670,16.648 C5.786,16.793 5.953,16.865 6.179,16.865 C6.363,16.865 6.551,16.816 6.746,16.710 C6.941,16.608 7.127,16.457 7.308,16.259 L7.308,16.793 L8.282,16.793 L8.282,11.918 ZM11.817,13.082 C11.817,12.682 11.736,12.378 11.573,12.171 C11.410,11.963 11.175,11.860 10.867,11.860 C10.716,11.860 10.566,11.898 10.417,11.976 C10.272,12.052 10.131,12.167 9.999,12.314 L9.999,10.186 L9.014,10.186 L9.014,16.793 L9.999,16.793 L9.999,16.420 C10.127,16.571 10.267,16.680 10.416,16.750 C10.565,16.822 10.734,16.856 10.926,16.856 C11.214,16.856 11.436,16.765 11.588,16.581 C11.741,16.396 11.817,16.131 11.817,15.787 L11.817,13.082 ZM15.196,15.169 L14.194,15.169 L14.194,15.391 C14.194,15.679 14.160,15.863 14.097,15.948 C14.032,16.032 13.920,16.074 13.758,16.074 C13.603,16.074 13.492,16.026 13.428,15.926 C13.363,15.826 13.333,15.649 13.333,15.391 L13.333,14.473 L15.196,14.473 L15.196,13.230 C15.196,12.768 15.077,12.414 14.837,12.167 C14.597,11.921 14.255,11.798 13.809,11.798 C13.372,11.798 13.018,11.930 12.742,12.196 C12.466,12.462 12.328,12.809 12.328,13.230 L12.328,15.420 C12.328,15.890 12.454,16.259 12.704,16.526 C12.954,16.793 13.299,16.927 13.736,16.927 C14.221,16.927 14.586,16.802 14.828,16.550 C15.075,16.296 15.196,15.920 15.196,15.420 L15.196,15.169 ZM13.333,13.223 C13.333,13.018 13.364,12.871 13.433,12.785 C13.501,12.695 13.611,12.650 13.767,12.650 C13.915,12.650 14.026,12.695 14.091,12.785 C14.158,12.871 14.194,13.018 14.194,13.223 L14.194,13.715 L13.333,13.715 L13.333,13.223 ZM10.466,16.093 C10.383,16.093 10.306,16.074 10.230,16.041 C10.156,16.006 10.078,15.946 9.999,15.867 L9.999,12.830 C10.066,12.763 10.132,12.713 10.200,12.681 C10.268,12.649 10.337,12.634 10.407,12.634 C10.538,12.634 10.639,12.676 10.711,12.760 C10.780,12.846 10.813,12.970 10.813,13.135 L10.813,15.653 C10.813,15.809 10.784,15.920 10.729,15.989 C10.673,16.059 10.586,16.093 10.466,16.093 ZM13.148,6.679 C12.947,6.898 12.736,7.065 12.516,7.181 C12.298,7.294 12.086,7.352 11.880,7.352 C11.625,7.352 11.436,7.271 11.306,7.110 C11.179,6.951 11.114,6.711 11.114,6.393 L11.114,1.904 L12.210,1.904 L12.210,6.021 C12.210,6.147 12.235,6.239 12.280,6.295 C12.325,6.354 12.401,6.382 12.503,6.382 C12.584,6.382 12.686,6.344 12.810,6.269 C12.933,6.193 13.046,6.097 13.148,5.980 L13.148,1.904 L14.245,1.904 L14.245,7.274 L13.148,7.274 L13.148,6.679 ZM8.625,7.409 C8.145,7.409 7.760,7.274 7.472,7.004 C7.185,6.734 7.041,6.372 7.041,5.915 L7.041,3.131 C7.041,2.714 7.188,2.384 7.483,2.138 C7.778,1.892 8.176,1.768 8.674,1.768 C9.128,1.768 9.501,1.899 9.791,2.157 C10.080,2.416 10.225,2.754 10.225,3.163 L10.225,5.937 C10.225,6.396 10.082,6.754 9.800,7.017 C9.514,7.279 9.123,7.409 8.625,7.409 ZM9.107,3.091 C9.107,2.974 9.062,2.880 8.973,2.806 C8.883,2.733 8.766,2.699 8.621,2.699 C8.487,2.699 8.379,2.733 8.294,2.806 C8.211,2.880 8.170,2.974 8.170,3.091 L8.170,6.016 C8.170,6.163 8.209,6.277 8.286,6.358 C8.364,6.440 8.476,6.479 8.621,6.479 C8.769,6.479 8.887,6.438 8.975,6.356 C9.063,6.274 9.107,6.160 9.107,6.016 L9.107,3.091 ZM5.514,7.274 L4.279,7.274 L4.279,4.390 L2.809,-0.006 L4.052,-0.006 L4.854,2.904 L4.932,2.904 L5.696,-0.006 L6.952,-0.006 L5.514,4.254 L5.514,7.274 Z" class="cls-1"/>
</svg>
